<svg width="104" height="37" viewBox="0 0 104 37" fill="none" xmlns="http://www.w3.org/2000/svg">
<g clip-path="url(#clip0_3_2)">
<path d="M13.5099 36.6164C10.6675 36.6164 8.51004 35.9144 7.03747 34.5103C5.59916 33.1062 4.88 31.1029 4.88 28.5002V2.3023H11.6606V27.0105C11.6606 28.1064 11.9004 28.9454 12.3798 29.5276C12.8592 30.0755 13.5613 30.3495 14.4859 30.3495C14.8284 30.3495 15.2051 30.281 15.616 30.144C16.0269 29.9728 16.455 29.7331 16.9002 29.4248L19.2632 34.5103C18.4413 35.1267 17.5166 35.6233 16.4893 36C15.4961 36.4109 14.503 36.6164 13.5099 36.6164ZM0.719154 16.0691V10.3158H18.0817V16.0691H0.719154ZM34.7535 36.6164C32.2194 36.6164 29.9763 36.0514 28.0243 34.9213C26.0723 33.7569 24.5312 32.1645 23.4011 30.144C22.3053 28.1235 21.7573 25.7948 21.7573 23.1579C21.7573 20.521 22.3224 18.1923 23.4525 16.1718C24.6168 14.1513 26.1921 12.576 28.1784 11.4459C30.1989 10.2815 32.5105 9.6994 35.1131 9.6994C37.3733 9.6994 39.4452 10.2987 41.3287 11.4973C43.2465 12.6616 44.7704 14.391 45.9005 16.6855C47.0648 18.9457 47.647 21.7025 47.647 24.9558H28.1784L28.7948 24.3394C28.7948 25.6065 29.103 26.7194 29.7194 27.6783C30.3701 28.6029 31.192 29.3221 32.1851 29.8358C33.2125 30.3152 34.3084 30.5549 35.4727 30.5549C36.8768 30.5549 38.024 30.2639 38.9144 29.6817C39.8048 29.0653 40.4897 28.2776 40.9691 27.3187L47.0306 29.6817C46.3114 31.12 45.3697 32.37 44.2053 33.4316C43.0752 34.4589 41.7225 35.2466 40.1472 35.7945C38.5719 36.3425 36.774 36.6164 34.7535 36.6164ZM29.1544 20.5381L28.538 19.9217H40.9178L40.3527 20.5381C40.3527 19.3053 40.0616 18.3293 39.4794 17.6101C38.8973 16.8567 38.1781 16.3088 37.322 15.9663C36.5001 15.6239 35.6953 15.4526 34.9077 15.4526C34.12 15.4526 33.281 15.6239 32.3906 15.9663C31.5002 16.3088 30.7297 16.8567 30.079 17.6101C29.4626 18.3293 29.1544 19.3053 29.1544 20.5381ZM63.9673 36.6164C61.2962 36.6164 58.9161 36.0514 56.8271 34.9213C54.7381 33.7569 53.1115 32.1645 51.9471 30.144C50.7828 28.0893 50.2006 25.7606 50.2006 23.1579C50.2006 20.521 50.7828 18.1923 51.9471 16.1718C53.1115 14.1513 54.721 12.576 56.7757 11.4459C58.8305 10.2815 61.1934 9.6994 63.8646 9.6994C66.433 9.6994 68.7788 10.3329 70.9021 11.6C73.0253 12.8671 74.5663 14.6992 75.5252 17.0964L69.1555 19.3566C68.6761 18.3635 67.9227 17.5759 66.8953 16.9937C65.9022 16.3773 64.7892 16.0691 63.5564 16.0691C62.2893 16.0691 61.1763 16.3773 60.2174 16.9937C59.2586 17.5759 58.5052 18.3978 57.9572 19.4594C57.4093 20.521 57.1353 21.7538 57.1353 23.1579C57.1353 24.562 57.4093 25.7948 57.9572 26.8564C58.5052 27.8838 59.2757 28.7057 60.2688 29.3221C61.2619 29.9385 62.392 30.2467 63.6591 30.2467C64.892 30.2467 66.0049 29.9214 66.9981 29.2707C68.0254 28.6201 68.7788 27.7639 69.2583 26.7023L75.6793 28.9625C74.6862 31.394 73.128 33.2775 71.0048 34.6131C68.9158 35.9486 66.57 36.6164 63.9673 36.6164ZM79.6808 36V0.042099H86.4615V36H79.6808ZM96.7352 36V22.8497H103.516V36H96.7352ZM96.7352 22.8497C96.7352 21.1032 96.5297 19.7505 96.1187 18.7916C95.7078 17.8327 95.1427 17.1478 94.4236 16.7368C93.7044 16.2916 92.8654 16.0691 91.9065 16.0691C90.16 16.0348 88.8073 16.5656 87.8484 17.6615C86.9238 18.7573 86.4615 20.384 86.4615 22.5415H84.2013C84.2013 19.8018 84.5951 17.4902 85.3827 15.6067C86.2046 13.689 87.3347 12.2335 88.7731 11.2404C90.2456 10.2131 91.9579 9.6994 93.9099 9.6994C95.9646 9.6994 97.694 10.1103 99.0981 10.9322C100.536 11.7541 101.632 13.0383 102.386 14.7848C103.139 16.4971 103.516 18.7231 103.516 21.4627V22.8497H96.7352Z" fill="white"/>
</g>
<defs>
<clipPath id="clip0_3_2">
<rect width="104" height="37" fill="white"/>
</clipPath>
</defs>
</svg>
