<svg width="48" height="48" viewBox="0 0 48 48" fill="none" xmlns="http://www.w3.org/2000/svg">
<g clip-path="url(#clip0_1_5)">
<path d="M45.5625 0.5625H2.4375C1.40039 0.5625 0.5625 1.40039 0.5625 2.4375V45.5625C0.5625 46.5996 1.40039 47.4375 2.4375 47.4375H45.5625C46.5996 47.4375 47.4375 46.5996 47.4375 45.5625V2.4375C47.4375 1.40039 46.5996 0.5625 45.5625 0.5625ZM24.0645 24.3574L12.8145 33.791C12.5098 34.0488 12.0469 33.832 12.0469 33.4336V29.7598C12.0469 29.625 12.1113 29.4902 12.2168 29.4023L18.6504 24L12.2168 18.5977C12.1629 18.5551 12.1196 18.5008 12.0901 18.4388C12.0607 18.3768 12.0459 18.3089 12.0469 18.2402V14.5664C12.0469 14.168 12.5098 13.9512 12.8145 14.209L24.0645 23.6367C24.293 23.8242 24.293 24.1699 24.0645 24.3574ZM35.9531 33.4336C35.9531 33.6914 35.7539 33.9023 35.5137 33.9023H24.6738C24.4336 33.9023 24.2344 33.6914 24.2344 33.4336V30.6211C24.2344 30.3633 24.4336 30.1523 24.6738 30.1523H35.5137C35.7539 30.1523 35.9531 30.3633 35.9531 30.6211V33.4336Z" fill="white"/>
</g>
<defs>
<clipPath id="clip0_1_5">
<rect width="48" height="48" fill="white"/>
</clipPath>
</defs>
</svg>
